<?xml version="1.0" standalone="no"?>
<!DOCTYPE svg PUBLIC "-//W3C//DTD SVG 20010904//EN"
 "http://www.w3.org/TR/2001/REC-SVG-20010904/DTD/svg10.dtd">
<svg version="1.0" xmlns="http://www.w3.org/2000/svg"
 width="500.000000pt" height="500.000000pt" viewBox="0 0 500.000000 500.000000"
 preserveAspectRatio="xMidYMid meet">

<g transform="translate(0.000000,500.000000) scale(0.100000,-0.100000)"
fill="#000000" stroke="none">
<path d="M2396 4540 c-261 -30 -472 -101 -648 -219 -62 -42 -150 -125 -234
-222 -11 -13 -49 -40 -84 -59 -83 -46 -214 -170 -279 -265 -127 -183 -201
-420 -201 -641 0 -157 36 -378 82 -501 l19 -53 -37 -32 c-42 -37 -64 -82 -64
-131 0 -97 85 -447 141 -582 30 -72 81 -135 130 -160 l27 -15 4 -162 3 -163
42 -86 c128 -262 420 -538 717 -680 328 -156 645 -156 973 1 308 146 604 432
730 705 26 56 28 70 31 223 l4 162 28 15 c50 26 98 85 129 159 57 136 141 485
141 583 0 47 -25 96 -67 133 l-35 31 25 62 c79 198 97 450 47 642 -26 99 -85
221 -144 299 l-45 59 49 54 c57 62 106 156 116 219 8 56 -13 84 -63 84 -84 0
-153 38 -463 260 -201 144 -392 229 -598 266 -105 18 -367 26 -476 14z m-531
-1117 c235 -157 546 -234 884 -220 237 10 417 51 590 133 51 24 95 44 97 44 9
0 54 -103 82 -185 58 -173 101 -424 123 -713 13 -179 19 -165 -107 -252 -426
-294 -1170 -367 -1731 -169 -155 55 -325 149 -420 232 l-35 31 7 96 c20 280
81 478 268 876 52 110 97 208 101 218 6 18 10 16 44 -16 20 -19 64 -53 97 -75z
m2085 -1013 c0 -74 -80 -405 -126 -525 -17 -45 -55 -105 -66 -105 -5 0 -8 112
-8 248 l0 249 50 62 c27 34 62 83 77 108 l27 46 23 -27 c13 -15 23 -40 23 -56z
m-2817 12 c19 -31 54 -78 76 -104 l41 -46 0 -248 0 -247 -24 22 c-14 13 -34
46 -45 75 -49 122 -131 457 -131 534 0 28 24 72 39 72 5 0 24 -26 44 -58z
m471 -387 c587 -280 1467 -237 1964 98 l83 55 -3 -417 -3 -416 -32 -65 c-72
-145 -259 -355 -428 -482 -274 -206 -565 -291 -836 -243 -334 58 -691 308
-910 636 -91 137 -89 123 -89 583 l0 404 81 -55 c45 -29 123 -74 173 -98z"/>
<path d="M1832 2890 c-81 -11 -172 -38 -172 -50 0 -15 33 -80 41 -80 4 0 36 8
71 17 48 13 103 17 228 17 125 0 180 -4 228 -17 35 -9 67 -17 71 -17 5 0 16
18 26 41 23 49 20 51 -80 75 -82 19 -321 27 -413 14z"/>
<path d="M2832 2890 c-81 -11 -172 -38 -172 -50 0 -15 33 -80 41 -80 4 0 36 8
71 17 48 13 103 17 228 17 125 0 180 -4 228 -17 35 -9 67 -17 71 -17 5 0 16
18 26 41 23 49 20 51 -80 75 -82 19 -321 27 -413 14z"/>
<path d="M1910 2593 c-24 -9 -70 -55 -86 -85 -19 -37 -18 -42 8 -24 12 9 33
16 46 16 31 0 72 -43 72 -75 0 -33 -42 -75 -75 -75 -15 0 -37 11 -52 26 l-26
26 7 -42 c8 -54 26 -87 66 -125 26 -25 39 -30 81 -30 46 0 54 4 89 41 80 86
81 221 2 306 -29 30 -46 40 -77 43 -22 3 -47 2 -55 -2z"/>
<path d="M3010 2593 c-24 -9 -70 -55 -86 -85 -19 -37 -18 -42 8 -24 32 23 65
20 93 -9 32 -31 32 -69 0 -100 -31 -32 -69 -32 -102 1 l-26 26 7 -42 c8 -54
26 -87 66 -125 26 -25 39 -30 81 -30 46 0 54 4 89 41 80 86 81 221 2 306 -29
30 -46 40 -77 43 -22 3 -47 2 -55 -2z"/>
<path d="M1557 1743 c-17 -16 -3 -35 56 -76 295 -207 715 -304 1097 -253 114
16 245 43 273 58 18 9 23 33 8 42 -5 4 -56 -5 -113 -18 -372 -89 -754 -44
-1094 127 -39 20 -101 56 -137 81 -68 47 -78 51 -90 39z"/>
<path d="M3432 1727 c-35 -24 -39 -50 -7 -55 28 -3 80 40 72 61 -8 22 -25 21
-65 -6z"/>
<path d="M3235 1619 c-54 -26 -80 -45 -80 -57 0 -28 35 -23 115 16 56 28 75
42 75 57 0 30 -23 27 -110 -16z"/>
<path d="M1553 1383 c-15 -38 200 -205 382 -296 189 -95 346 -132 565 -132
227 1 404 42 615 146 155 75 385 240 385 275 0 34 -32 24 -102 -34 -189 -155
-426 -270 -658 -319 -106 -22 -352 -24 -455 -4 -225 44 -459 162 -635 320 -73
65 -87 71 -97 44z"/>
</g>
</svg>
